<?xml version="1.0" encoding="UTF-8" standalone="no"?>
<svg
   width="6.3424358cm"
   height="2.0180311cm"
   viewBox="0 0 63.424358 20.180311"
   version="1.1"
   id="svg8"
   sodipodi:docname="logo_sans_darkred_border.svg"
   inkscape:version="1.4 (e7c3feb100, 2024-10-09)"
   xmlns:inkscape="http://www.inkscape.org/namespaces/inkscape"
   xmlns:sodipodi="http://sodipodi.sourceforge.net/DTD/sodipodi-0.dtd"
   xmlns="http://www.w3.org/2000/svg"
   xmlns:svg="http://www.w3.org/2000/svg"
   xmlns:rdf="http://www.w3.org/1999/02/22-rdf-syntax-ns#"
   xmlns:cc="http://creativecommons.org/ns#"
   xmlns:dc="http://purl.org/dc/elements/1.1/">
  <sodipodi:namedview
     id="namedview1"
     pagecolor="#ffffff"
     bordercolor="#000000"
     borderopacity="0.25"
     inkscape:showpageshadow="2"
     inkscape:pageopacity="0.0"
     inkscape:pagecheckerboard="0"
     inkscape:deskcolor="#d1d1d1"
     inkscape:document-units="cm"
     inkscape:zoom="3.1537568"
     inkscape:cx="119.85705"
     inkscape:cy="38.2084"
     inkscape:window-width="1536"
     inkscape:window-height="776"
     inkscape:window-x="0"
     inkscape:window-y="0"
     inkscape:window-maximized="1"
     inkscape:current-layer="svg8" />
  <defs
     id="defs2" />
  <metadata
     id="metadata5">
    <rdf:RDF>
      <cc:Work
         rdf:about="">
        <dc:format>image/svg+xml</dc:format>
        <dc:type
           rdf:resource="http://purl.org/dc/dcmitype/StillImage" />
      </cc:Work>
    </rdf:RDF>
  </metadata>
  <g
     style="stroke:none;stroke-opacity:1;stroke-width:0.0997003;stroke-dasharray:none"
     id="g826">
    <path
       style="fill:#aa6450;stroke:none;stroke-opacity:1;stroke-width:0.0997003;stroke-dasharray:none"
       d="m 30.556641,1.8613281 -0.5625,0.9277344 c 1.170439,0.7106615 1.854154,1.6051279 2.353515,2.7246094 0.499362,1.1194815 0.793434,2.4683461 1.107422,3.9902344 0.627977,3.0437767 1.35981,6.7786317 4.283203,10.6757807 l 0.869141,-0.65039 C 35.83037,15.827234 35.147268,12.337233 34.517578,9.2851563 34.202733,7.7591181 33.905516,6.3404043 33.339844,5.0722656 32.774171,3.804127 31.918699,2.688336 30.556641,1.8613281 Z"
       id="path821" />
    <path
       style="fill:#aa6450;stroke:none;stroke-opacity:1;stroke-width:0.0997003;stroke-dasharray:none"
       d="m 35.722656,0 -0.921875,0.5703125 c 0.73686,1.190265 0.990943,2.0295997 1.017578,2.7480469 0.02663,0.7184471 -0.178094,1.3619658 -0.474609,2.1679687 -0.593031,1.6120058 -1.500718,3.7896713 -0.980469,7.8222659 l 1.076172,-0.138672 C 34.945042,9.3376019 35.753585,7.5186344 36.363281,5.8613281 36.668129,5.032675 36.93744,4.2240316 36.902344,3.2773438 36.867247,2.3306559 36.522251,1.2916019 35.722656,0 Z"
       id="path823" />
  </g>
  <path
     style="fill:#9d9d9d;stroke:none;stroke-opacity:1;stroke-width:0.0997003;stroke-dasharray:none"
     d="m 36.525391,11.251953 c -0.126206,1.251442 0.433579,2.70328 1.007812,3.861328 0.574233,1.158048 1.179688,2.021485 1.179688,2.021485 l 0.341796,0.492187 0.419922,-2.847656 -0.470703,-0.06836 -0.232422,1.583984 c -0.204271,-0.311729 -0.416761,-0.594497 -0.8125,-1.392578 -0.557064,-1.123424 -1.068631,-2.533677 -0.960937,-3.601563 z"
     id="path831" />
  <path
     style="fill:#9d9d9d;stroke:none;stroke-opacity:1;stroke-width:0.0997003;stroke-dasharray:none"
     d="m 32.898437,12.623047 -0.464843,0.02539 -0.332032,2.253906 0.470704,0.07031 0.183593,-1.242187 c 0.139038,0.477906 0.196614,0.752986 0.529297,1.654297 0.531084,1.438822 1.26655,3.114999 2.167969,4.113281 l 0.353516,-0.31836 C 34.999628,18.285956 34.254946,16.634382 33.732422,15.21875 33.209898,13.803118 32.898438,12.623047 32.898437,12.623047 Z"
     id="path835" />
  <g
     id="g876"
     transform="rotate(41.339355,206.60773,-74.082664)"
     style="stroke:#ffffff;stroke-opacity:1;stroke-width:0.0997003;stroke-dasharray:none" />
  <g
     aria-label="Seis  Sol"
     id="text868"
     style="font-size:14.1111px;font-family:sans-serif;fill:#473805;stroke:#ffffff;paint-order:markers stroke fill">
    <g
       id="path1037">
      <path
         style="fill:#ffffff;stroke:none"
         d="m 6.1484375,4.3203125 c -1.1978433,0 -2.240583,0.3025579 -3.0644531,0.9277344 -0.8263025,0.6223418 -1.2871094,1.508016 -1.2871094,2.5078125 0,0.8458705 0.2601978,1.6002789 0.7871094,2.1660156 l 0.00195,0.00195 0.00195,0.00195 C 3.1232779,10.489053 3.900003,10.850237 4.8730469,11.056641 h 0.00195 0.00195 c 0.4577653,0.09342 0.891224,0.171223 1.3007813,0.232422 0.3878675,0.0573 0.7448322,0.128569 1.0683593,0.214843 l 0.00195,0.002 c 0.4023628,0.105672 0.6584243,0.247084 0.7890625,0.375 l 0.00195,0.002 0.00195,0.002 c 0.098511,0.09449 0.1835938,0.274224 0.1835938,0.646484 0,0.378973 -0.1218665,0.6061 -0.4882813,0.851563 l -0.00195,0.002 c -0.3529607,0.238767 -0.9067569,0.388672 -1.6894531,0.388672 -0.5317649,0 -1.1167072,-0.104644 -1.7539063,-0.324219 C 3.6635843,13.23301 3.1211231,12.930646 2.6503906,12.539063 L 2.5117188,12.423828 H 1.734375 v 2.533203 l 0.296875,0.13086 c 0.6365635,0.282385 1.2653148,0.498889 1.8867188,0.644531 h 0.00195 c 0.6372555,0.148198 1.3407257,0.21875 2.1113281,0.21875 0.728293,0 1.3673488,-0.08537 1.921875,-0.273438 0.5406805,-0.181911 1.0247286,-0.440095 1.4414063,-0.773437 h 0.00195 C 9.7872505,14.588472 10.097912,14.194719 10.3125,13.740234 v -0.002 c 0.216776,-0.450034 0.332031,-0.922846 0.332031,-1.40039 0,-0.822453 -0.226336,-1.541008 -0.7148435,-2.058594 C 9.4592212,9.780827 8.7937317,9.4408087 7.9707031,9.2226563 l -0.00195,-0.00195 h -0.00195 C 7.5712499,9.1194045 7.1004695,9.0231861 6.5488281,8.9296875 6.0136963,8.8389875 5.6040156,8.7622514 5.3242187,8.7011719 l -0.00586,-0.00195 C 4.8215672,8.5830199 4.5249076,8.4151567 4.4160156,8.2949219 4.2932086,8.1593224 4.2148438,7.96617 4.2148437,7.625 c 0,-0.3228905 0.105873,-0.5250052 0.4433594,-0.7578125 0.3405151,-0.2316906 0.8212446,-0.3691406 1.4824219,-0.3691406 0.6108789,0 1.2025809,0.1000995 1.7851562,0.3027343 l 0.00195,0.00195 h 0.00195 C 8.5240831,7.003717 8.9817276,7.2527207 9.3105469,7.53125 l 0.140625,0.1171875 H 10.230469 V 5.2089844 L 9.9296875,5.078125 C 9.4313291,4.8610184 8.8704762,4.6824981 8.2441406,4.5390625 7.6000306,4.3915564 6.9014574,4.3203125 6.1484375,4.3203125 Z m 0,1 c 0.6893256,0 1.313671,0.065258 1.8730469,0.1933594 0.4622132,0.1058504 0.8413447,0.2451305 1.2089844,0.3867187 V 6.3789062 C 8.9149975,6.1995813 8.645296,5.9894793 8.2558594,5.8574219 7.5706406,5.6190849 6.8618487,5.4980469 6.140625,5.4980469 c -0.799542,0 -1.4943063,0.16637 -2.0449219,0.5410156 v 0.00195 H 4.09375 C 3.5517462,6.4136433 3.2148438,6.9934343 3.2148438,7.625 c -1e-7,0.513213 0.1427727,0.9904899 0.4609375,1.3417969 0.331403,0.3659241 0.8127063,0.5680197 1.4218749,0.7089844 h 0.00391 l 0.00195,0.00195 c 0.3080935,0.067396 0.7310482,0.145689 1.2773438,0.2382812 0.5309223,0.089987 0.9767064,0.1820654 1.3339843,0.2734374 0.7019992,0.186072 1.1850937,0.456226 1.4863282,0.775391 0.2831931,0.30005 0.4433594,0.725594 0.4433594,1.373047 0,0.321086 -0.073091,0.636476 -0.2324219,0.966797 l -0.00195,0.002 -0.00195,0.002 C 9.2553844,13.633334 9.0482812,13.899709 8.7695313,14.125 8.4515301,14.379139 8.0764928,14.58185 7.6347656,14.730469 h -0.00195 c -0.4189052,0.142269 -0.9525438,0.220703 -1.6015625,0.220703 -0.7084908,0 -1.3369092,-0.06595 -1.8847656,-0.193359 C 3.6883031,14.650426 3.2135569,14.471084 2.734375,14.275391 v -0.566407 c 0.3977424,0.246595 0.7708811,0.526503 1.2324219,0.685547 0.7224642,0.248957 1.415591,0.378907 2.078125,0.378907 0.9069541,0 1.6641342,-0.166115 2.2480469,-0.560547 0.5798373,-0.388435 0.9316406,-1.004118 0.9316406,-1.681641 0,-0.536564 -0.1415197,-1.027975 -0.4921875,-1.365234 C 8.4229777,10.86438 8.0081532,10.671802 7.5039062,10.539063 7.1384149,10.441598 6.7447996,10.360959 6.3242187,10.298828 5.9345144,10.240596 5.5187242,10.166488 5.0761719,10.076172 4.2351855,9.8970051 3.6624296,9.6009591 3.3164063,9.2382813 2.9713674,8.8671751 2.796875,8.4066921 2.796875,7.7558594 c 0,-0.7181565 0.263442,-1.2380834 0.8886719,-1.7089844 v -0.00195 H 3.6875 C 4.3149457,5.5683809 5.114532,5.3203125 6.1484375,5.3203125 Z"
         id="path1" />
      <path
         style="stroke:none"
         d="m 10.144083,12.337354 q 0,0.599446 -0.2824975,1.185112 -0.2756074,0.585666 -0.7785909,0.992187 -0.5512149,0.440972 -1.2884647,0.689019 -0.7303597,0.248046 -1.7638876,0.248046 -1.1093199,0 -1.9981538,-0.206705 Q 3.1505447,15.038307 2.23415,14.631786 V 12.92302 h 0.096463 q 0.778591,0.647678 1.7983385,0.999077 1.0197475,0.351399 1.9154716,0.351399 1.2677942,0 1.9705931,-0.475422 0.7096891,-0.475423 0.7096891,-1.267795 0,-0.682128 -0.3376191,-1.005967 Q 8.0563569,11.200474 7.3742285,11.021329 6.8574646,10.883525 6.2511283,10.793953 5.6516821,10.70438 4.9764439,10.566577 3.6121872,10.277189 2.9507293,9.58128 2.2961617,8.8784811 2.2961617,7.7553808 q 0,-1.2884647 1.0886493,-2.1083968 1.0886494,-0.8268223 2.7629645,-0.8268223 1.0817591,0 1.9843735,0.2067056 0.9026143,0.2067056 1.598523,0.5098737 V 7.1490445 H 9.6342094 Q 9.0485436,6.6529511 8.0908078,6.3291124 7.1399622,5.9983835 6.1408853,5.9983835 q -1.0955395,0 -1.7638875,0.4547522 Q 3.71554,6.907888 3.71554,7.6244673 q 0,0.6407873 0.3307289,1.0059671 0.3307289,0.3651798 1.1644413,0.558105 0.4409719,0.096463 1.2540138,0.2342663 0.8130419,0.1378038 1.3780372,0.2824977 1.1437708,0.3031686 1.7225464,0.9163946 0.5787754,0.613227 0.5787754,1.715656 z"
         id="path2" />
    </g>
    <g
       id="path1039">
      <path
         style="fill:#ffffff;stroke:none"
         d="m 15.429688,6.8554687 c -1.230777,0 -2.30084,0.4310521 -3.082032,1.2695313 -0.780466,0.8433224 -1.160156,1.988651 -1.160156,3.337891 0,1.36625 0.4002,2.508717 1.226563,3.308593 h 0.002 c 0.823543,0.79187 1.969028,1.173829 3.335937,1.173829 0.541971,0 1.066714,-0.0688 1.566406,-0.205079 0.476055,-0.129833 0.941892,-0.290192 1.398438,-0.482421 l 0.30664,-0.128907 v -2.24414 h -0.761718 l -0.142578,0.126953 c -0.143589,0.128937 -0.481843,0.327289 -0.986329,0.527344 -0.475358,0.185764 -0.937283,0.27539 -1.394531,0.27539 -0.347809,0 -0.654087,-0.04768 -0.927734,-0.138672 h -0.002 C 14.543963,13.58609 14.328211,13.45651 14.142578,13.285156 h -0.002 l -0.002,-0.002 c -0.187418,-0.170064 -0.338953,-0.389269 -0.457031,-0.677734 -0.05963,-0.148108 -0.06358,-0.366823 -0.09375,-0.552735 h 5.585937 v -1.203125 c 0,-1.1998856 -0.311942,-2.2056174 -0.980469,-2.9238278 C 17.528503,7.206429 16.565154,6.8554688 15.429688,6.8554687 Z m 0,1 c 0.940776,10e-8 1.573349,0.2566797 2.029296,0.7500001 h 0.002 c 0.460673,0.4943802 0.712891,1.2122927 0.712891,2.2441402 v 0.203125 h -0.257812 l -0.002,-0.496093 C 17.908909,9.7950358 17.707879,9.1295375 17.267578,8.6464844 16.818238,8.1479005 16.138394,7.9238281 15.359375,7.9238281 c -0.791846,0 -1.498899,0.2506908 -2.011719,0.7578125 l -0.002,0.00195 c -0.488267,0.4882678 -0.775549,1.1228375 -0.839844,1.8300782 l -0.05078,0.546875 h 0.04883 v 0.492187 c 0,0.523288 0.07876,1.000436 0.25,1.425782 v 0.002 c 0.166551,0.408316 0.404837,0.763438 0.712891,1.042969 0.291024,0.26777 0.638002,0.469321 1.023437,0.599609 h 0.002 c 0.387386,0.129129 0.804544,0.191406 1.246093,0.191406 0.589444,0 1.179307,-0.116614 1.759766,-0.34375 H 17.5 l 0.002,-0.002 c 0.227681,-0.09029 0.338653,-0.196719 0.521484,-0.289062 v 0.261718 c -0.319704,0.122912 -0.638993,0.246004 -0.96875,0.335938 -0.409812,0.111767 -0.843332,0.167969 -1.302734,0.167969 -1.187053,0 -2.032963,-0.308364 -2.642578,-0.894532 -0.60603,-0.587274 -0.921875,-1.410126 -0.921875,-2.58789 0,-1.167975 0.306147,-2.0224327 0.894531,-2.6582035 C 13.67854,8.165495 14.41996,7.8554687 15.429688,7.8554687 Z m -0.07031,1.0683594 c 0.599019,0 0.944712,0.1470219 1.166016,0.3925782 v 0.00195 h 0.002 c 0.142196,0.1556504 0.165256,0.4792979 0.230468,0.7421876 h -3.009765 c 0.09232,-0.225021 0.122961,-0.4881954 0.304687,-0.669922 0.313746,-0.3094097 0.712333,-0.4667969 1.306641,-0.4667969 z"
         id="path3" />
      <path
         style="stroke:none"
         d="m 18.674133,11.551873 h -5.670622 q 0,0.709689 0.213595,1.240234 0.213596,0.523654 0.585666,0.861273 0.35829,0.330729 0.847493,0.496093 0.496093,0.165365 1.088649,0.165365 0.785481,0 1.577853,-0.310059 0.799261,-0.316948 1.13688,-0.620117 h 0.0689 v 1.412489 q -0.654567,0.275607 -1.336696,0.461642 -0.682128,0.186035 -1.433158,0.186035 -1.915472,0 -2.990341,-1.033528 -1.074869,-1.040418 -1.074869,-2.948999 0,-1.8879112 1.026638,-2.9972311 1.033528,-1.1093198 2.714733,-1.1093198 1.557182,0 2.397785,0.9095045 0.847492,0.9095045 0.847492,2.5838194 z m -1.260904,-0.992187 q -0.0069,-1.0197471 -0.516764,-1.5778521 -0.502983,-0.5581051 -1.536511,-0.5581051 -1.040418,0 -1.660535,0.6132266 -0.613226,0.6132265 -0.695908,1.5227306 z"
         id="path4" />
    </g>
    <g
       id="path1041">
      <path
         style="fill:#ffffff;stroke:none"
         d="m 20.068359,4.4375 v 2.34375 h 2.460938 V 4.4375 Z m 1,1 h 0.460938 v 0.34375 h -0.460938 z m -0.916015,1.6328125 v 8.6953125 h 2.294922 V 7.0703125 Z m 1,1 h 0.294922 v 6.6953125 h -0.294922 z"
         id="path5" />
      <path
         style="stroke:none"
         d="M 22.029655,6.2808811 H 20.568936 V 4.9372949 h 1.460719 z m -0.08268,8.9848019 H 20.651618 V 7.5693458 h 1.295355 z"
         id="path6" />
    </g>
    <g
       id="path1043">
      <path
         style="fill:#ffffff;stroke:none"
         d="m 27.134766,6.8828125 c -0.53374,0 -1.030752,0.070637 -1.486329,0.2167969 -0.443057,0.1390995 -0.82942,0.3363111 -1.146484,0.6015625 -0.315035,0.2607183 -0.565549,0.5708669 -0.732422,0.921875 l -0.002,0.00195 -0.002,0.00391 c -0.158434,0.3451604 -0.238281,0.7189343 -0.238281,1.1035156 0,0.5977051 0.17734,1.1547661 0.53125,1.5957031 l 0.002,0.002 0.002,0.0039 c 0.381318,0.461273 0.962082,0.754171 1.697266,0.949219 0.257397,0.06799 0.537768,0.130496 0.841796,0.1875 h 0.002 c 0.294636,0.0544 0.531493,0.10157 0.705078,0.140625 0.459406,0.10209 0.738549,0.24695 0.78125,0.285156 0.05474,0.04898 0.0957,0.109198 0.0957,0.316407 0,0.259378 -0.04295,0.326439 -0.230469,0.433593 -0.211119,0.12064 -0.572065,0.208985 -1.087891,0.208985 -0.393175,0 -0.814101,-0.07647 -1.267578,-0.238281 -0.457244,-0.167796 -0.86767,-0.388488 -1.236328,-0.666016 l -0.134765,-0.101563 h -0.734375 v 2.263672 l 0.27539,0.138672 c 0.358171,0.179085 0.78134,0.33657 1.275391,0.480469 h 0.0039 l 0.002,0.002 c 0.527244,0.14702 1.096511,0.216797 1.705078,0.216797 1.080549,0 1.994006,-0.24295 2.683594,-0.779297 0.683005,-0.527042 1.068359,-1.283856 1.068359,-2.125 10e-7,-0.657396 -0.205781,-1.258298 -0.626953,-1.697266 h -0.002 l -0.002,-0.002 C 29.467911,10.927091 28.908006,10.653199 28.240234,10.5 h -0.002 C 28.029887,10.451571 27.777469,10.399661 27.474609,10.34375 27.18619,10.28967 26.927917,10.236819 26.697266,10.183594 26.306678,10.09218 26.058372,9.9688908 25.966797,9.8925781 l -0.002,-0.00195 -0.002,-0.00195 c -0.07276,-0.059222 -0.111329,-0.1150415 -0.111329,-0.328125 0,-0.2065804 0.02567,-0.2557619 0.228516,-0.3671875 l 0.002,-0.00195 0.0039,-0.00195 c 0.236051,-0.1329861 0.544724,-0.2109375 0.953125,-0.2109375 0.392463,0 0.797498,0.073836 1.222657,0.2265625 h 0.002 0.002 C 28.700861,9.3571997 29.057259,9.5419862 29.339844,9.75 l 0.132812,0.097656 h 0.732422 V 7.65625 L 29.933594,7.5175781 C 29.572886,7.3319196 29.14533,7.1869566 28.646484,7.0703125 c -0.505225,-0.1238298 -1.010706,-0.1875 -1.511718,-0.1875 z m 0,1 c 0.417679,0 0.841598,0.05236 1.273437,0.1582031 h 0.002 l 0.0039,0.00195 c 0.330801,0.07708 0.560359,0.1732607 0.791016,0.2695312 V 8.5722656 C 29.000609,8.4716561 28.830585,8.344582 28.599609,8.2636719 28.078516,8.0764829 27.556104,7.9785156 27.039062,7.9785156 c -0.535622,0 -1.024345,0.1054357 -1.439453,0.3378907 -0.449419,0.2468641 -0.748047,0.7341416 -0.748047,1.2441406 0,0.4208131 0.15819,0.8411951 0.480469,1.1035161 0.293626,0.242981 0.668025,0.382036 1.138672,0.492187 0.247069,0.05701 0.52077,0.113756 0.820313,0.169922 h 0.002 c 0.293546,0.05419 0.534348,0.105098 0.720703,0.148437 h 0.002 c 0.534882,0.122492 0.901688,0.320629 1.144531,0.570313 0.230036,0.240578 0.347656,0.539631 0.347656,1.001953 0,0.564455 -0.195953,0.960709 -0.679687,1.333984 h -0.002 c -0.07992,0.06216 -0.261473,0.04495 -0.353516,0.09766 0.432569,-0.266651 0.712891,-0.750145 0.712891,-1.265625 0,-0.399128 -0.133372,-0.799122 -0.427735,-1.0625 -0.305815,-0.273625 -0.699246,-0.395487 -1.230468,-0.513672 -0.193402,-0.04351 -0.438773,-0.09276 -0.740235,-0.148438 h -0.002 c -0.283121,-0.05313 -0.540576,-0.111395 -0.769531,-0.171875 -0.614078,-0.162918 -0.991036,-0.391837 -1.179688,-0.61914 -0.204747,-0.256527 -0.308593,-0.553739 -0.308593,-0.9648441 0,-0.2479623 0.05072,-0.4694411 0.148437,-0.6835938 0.09954,-0.2075824 0.246687,-0.3991981 0.462891,-0.578125 h 0.002 l 0.002,-0.00195 c 0.196806,-0.1651763 0.461118,-0.3075376 0.806641,-0.4160156 h 0.002 c 0.342726,-0.1103027 0.735707,-0.1699219 1.183594,-0.1699219 z m -2.640625,6.2636715 c 0.253091,0.137644 0.4828,0.308518 0.759765,0.410157 h 0.002 l 0.002,0.002 c 0.546353,0.195484 1.085029,0.296875 1.609375,0.296875 0.42038,0 0.734492,-0.124776 1.06836,-0.228516 -0.372144,0.124829 -0.64906,0.324219 -1.179688,0.324219 -0.53061,0 -1.007352,-0.06224 -1.435547,-0.181641 -0.33687,-0.0983 -0.581686,-0.20328 -0.826171,-0.308593 z"
         id="path7" />
      <path
         style="stroke:none"
         d="m 30.00849,13.047043 q 0,1.054199 -0.875054,1.729437 -0.868163,0.675238 -2.377114,0.675238 -0.854383,0 -1.570962,-0.199815 -0.709689,-0.206706 -1.192002,-0.447862 v -1.453829 h 0.0689 q 0.613227,0.461642 1.364257,0.737249 0.75103,0.268718 1.440049,0.268718 0.854383,0 1.336696,-0.275608 0.482313,-0.275607 0.482313,-0.868163 0,-0.454752 -0.261827,-0.689019 -0.261827,-0.234266 -1.005967,-0.39963 -0.275608,-0.06201 -0.72347,-0.144694 -0.440972,-0.08268 -0.806151,-0.179145 -1.012858,-0.268717 -1.440049,-0.785481 -0.420301,-0.523654 -0.420301,-1.2815749 0,-0.4754228 0.192925,-0.8957241 0.199815,-0.4203014 0.599446,-0.7510303 0.38585,-0.3238387 0.978406,-0.5098737 0.599446,-0.1929252 1.336696,-0.1929252 0.689019,0 1.391818,0.1722546 0.709689,0.1653645 1.178221,0.406521 v 1.3849273 h -0.0689 Q 29.140326,8.9818339 28.430637,8.7337872 27.720948,8.4788503 27.03882,8.4788503 q -0.709689,0 -1.198893,0.2756074 -0.489203,0.2687173 -0.489203,0.8061518 0,0.4754225 0.296278,0.7165795 0.289388,0.241156 0.937065,0.39274 0.35829,0.08268 0.799262,0.165365 0.447862,0.08268 0.74414,0.151584 0.902614,0.206705 1.391817,0.709689 0.489204,0.509874 0.489204,1.350476 z"
         id="path8" />
    </g>
    <g
       id="path1045">
      <path
         style="fill:#ffffff;stroke:none"
         d="m 45.345703,4.3203125 c -1.197844,0 -2.23863,0.3025578 -3.0625,0.9277344 -0.826302,0.6223418 -1.289062,1.5080161 -1.289062,2.5078125 0,0.8458704 0.262151,1.6002789 0.789062,2.1660156 l 0.002,0.00195 0.002,0.00195 c 0.535388,0.5632717 1.310159,0.9244557 2.283203,1.1308597 h 0.002 0.002 c 0.457765,0.09342 0.891224,0.171223 1.300781,0.232422 h 0.002 c 0.387868,0.0573 0.742879,0.128569 1.066406,0.214843 h 0.002 v 0.002 c 0.402363,0.105671 0.660381,0.247086 0.791016,0.375 l 0.002,0.002 v 0.002 c 0.09851,0.09449 0.185547,0.274224 0.185547,0.646484 0,0.378973 -0.121866,0.6061 -0.488281,0.851563 h -0.002 v 0.002 c -0.352961,0.238767 -0.90871,0.388671 -1.691407,0.388672 -0.531764,0 -1.114753,-0.104644 -1.751953,-0.324219 -0.627431,-0.216209 -1.171845,-0.518573 -1.642578,-0.910156 l -0.138672,-0.115235 h -0.777343 v 2.533203 l 0.298828,0.13086 c 0.636563,0.282385 1.265314,0.498889 1.886718,0.644531 0.637256,0.148198 1.340727,0.21875 2.111329,0.21875 0.728293,0 1.369301,-0.08537 1.923828,-0.273438 0.54068,-0.181911 1.024728,-0.440095 1.441406,-0.773437 h 0.002 c 0.390765,-0.315824 0.699474,-0.70958 0.914063,-1.164063 v -0.002 c 0.216775,-0.450034 0.332031,-0.922846 0.332031,-1.40039 0,-0.822453 -0.226337,-1.541008 -0.714844,-2.058594 C 48.656487,9.7808271 47.992951,9.4408087 47.169922,9.2226563 l -0.002,-0.00195 h -0.002 C 46.770469,9.1194045 46.297735,9.0231861 45.746094,8.9296875 45.210962,8.8389875 44.801281,8.7622514 44.521484,8.7011719 l -0.0059,-0.00195 C 44.018843,8.5830201 43.724125,8.4151556 43.615234,8.2949219 43.492427,8.1593224 43.414063,7.96617 43.414062,7.625 c 0,-0.3228904 0.105873,-0.5250051 0.44336,-0.7578125 0.340515,-0.2316907 0.821245,-0.3691406 1.482422,-0.3691406 0.610879,0 1.20258,0.1000994 1.785156,0.3027343 l 0.002,0.00195 h 0.002 c 0.594396,0.2009827 1.052039,0.4499858 1.38086,0.7285156 l 0.138671,0.1171875 h 0.78125 V 5.2089844 L 49.128906,5.078125 c -0.498358,-0.2171066 -1.061164,-0.3956269 -1.6875,-0.5390625 -0.644109,-0.1475061 -1.342683,-0.21875 -2.095703,-0.21875 z m 0,1 c 0.689326,0 1.313671,0.065258 1.873047,0.1933594 0.462891,0.1060055 0.842898,0.2448735 1.210937,0.3867187 v 0.4785156 c -0.315963,-0.1796042 -0.586406,-0.38929 -0.976562,-0.5214843 -0.685219,-0.238337 -1.392058,-0.359375 -2.113281,-0.359375 -0.799542,0 -1.494307,0.16637 -2.044922,0.5410156 l -0.002,0.00195 C 42.750965,6.4136433 42.414062,6.9934343 42.414062,7.625 c 0,0.5132131 0.14082,0.99049 0.458985,1.3417969 0.331403,0.365924 0.81466,0.5680197 1.423828,0.7089844 h 0.002 l 0.0039,0.00195 c 0.308094,0.067396 0.731048,0.145689 1.277344,0.2382812 0.530921,0.089986 0.974754,0.1820654 1.332031,0.2734374 0.702,0.186072 1.187047,0.456226 1.488282,0.775391 0.283193,0.30005 0.441406,0.725594 0.441406,1.373047 0,0.321086 -0.07309,0.636476 -0.232422,0.966797 v 0.002 l -0.002,0.002 c -0.152819,0.32474 -0.361875,0.591115 -0.640625,0.816406 -0.318001,0.254139 -0.691086,0.45685 -1.132813,0.605469 h -0.002 c -0.418905,0.142269 -0.954497,0.220703 -1.603515,0.220703 -0.707764,0 -1.335353,-0.06621 -1.882813,-0.193359 h -0.002 c -0.457739,-0.107385 -0.933413,-0.286909 -1.412109,-0.482422 v -0.566407 c 0.397742,0.246595 0.770881,0.526503 1.232421,0.685547 0.722465,0.248957 1.415592,0.378907 2.078125,0.378907 0.906955,0 1.666088,-0.166115 2.25,-0.560547 0.579838,-0.388435 0.931641,-1.004118 0.931641,-1.681641 0,-0.536564 -0.14152,-1.027975 -0.492187,-1.365234 -0.309444,-0.30164 -0.726218,-0.494213 -1.230469,-0.626953 -0.365492,-0.09746 -0.757153,-0.178104 -1.177735,-0.240235 -0.389704,-0.05823 -0.805494,-0.13234 -1.248046,-0.222656 C 43.434404,9.8970051 42.861648,9.6009591 42.515625,9.2382813 42.170586,8.8671749 41.994141,8.4066928 41.994141,7.7558594 c 0,-0.7181566 0.265395,-1.2380834 0.890625,-1.7089844 v -0.00195 C 43.512211,5.568381 44.311797,5.3203125 45.345703,5.3203125 Z"
         id="path9" />
      <path
         style="stroke:none"
         d="m 49.342348,12.337354 q 0,0.599446 -0.282497,1.185112 -0.275608,0.585666 -0.778591,0.992187 -0.551215,0.440972 -1.288465,0.689019 -0.73036,0.248046 -1.763888,0.248046 -1.109319,0 -1.998153,-0.206705 -0.881944,-0.206706 -1.798339,-0.613227 V 12.92302 h 0.09646 q 0.778591,0.647678 1.798338,0.999077 1.019748,0.351399 1.915472,0.351399 1.267794,0 1.970593,-0.475422 0.709689,-0.475423 0.709689,-1.267795 0,-0.682128 -0.337619,-1.005967 Q 47.254622,11.200474 46.572494,11.021329 46.05573,10.883525 45.449393,10.793953 44.849947,10.70438 44.174709,10.566577 42.810452,10.277189 42.148994,9.58128 41.494427,8.8784811 41.494427,7.7553808 q 0,-1.2884647 1.088649,-2.1083968 1.088649,-0.8268223 2.762965,-0.8268223 1.081759,0 1.984373,0.2067056 0.902614,0.2067056 1.598523,0.5098737 v 1.6123035 h -0.09646 Q 48.246809,6.6529511 47.289073,6.3291124 46.338227,5.9983835 45.33915,5.9983835 q -1.095539,0 -1.763887,0.4547522 -0.661458,0.4547523 -0.661458,1.1713316 0,0.6407873 0.330729,1.0059671 0.330729,0.3651798 1.164441,0.558105 0.440972,0.096463 1.254014,0.2342663 0.813042,0.1378038 1.378037,0.2824977 1.143771,0.3031686 1.722547,0.9163946 0.578775,0.613227 0.578775,1.715656 z"
         id="path10" />
    </g>
    <g
       id="path1047">
      <path
         style="fill:#ffffff;stroke:none"
         d="m 54.441406,6.8554687 c -1.200463,10e-8 -2.237096,0.4302392 -2.972656,1.2656251 -0.732822,0.8329917 -1.082031,1.9619072 -1.082031,3.3007812 0,1.338873 0.349209,2.465836 1.082031,3.298828 v 0.002 c 0.735961,0.830584 1.772896,1.25586 2.972656,1.25586 1.191519,0 2.221855,-0.426161 2.957031,-1.25586 0.737881,-0.832751 1.091797,-1.961298 1.091797,-3.300781 0,-1.338421 -0.353159,-2.4682217 -1.089843,-3.3007812 l -0.002,-0.00195 c -0.73466,-0.833113 -1.76581,-1.2636719 -2.957031,-1.2636719 z m 0,1 c 0.966696,0 1.657596,0.2995615 2.208985,0.9257813 v 0.00195 c 0.548287,0.6187818 0.839843,1.4701279 0.839843,2.6386719 0,1.168543 -0.291556,2.017936 -0.839843,2.636719 -0.550992,0.621833 -1.241579,0.919922 -2.208985,0.919922 -0.977538,0 -1.674402,-0.298974 -2.224609,-0.919922 -0.543061,-0.618382 -0.830078,-1.468784 -0.830078,-2.636719 0,-1.169154 0.287872,-2.0220844 0.832031,-2.640625 0.550608,-0.6253335 1.245821,-0.9257813 2.222656,-0.9257813 z m 0,0.1171875 c -0.818267,0 -1.547256,0.3148819 -2.029297,0.9160157 l -0.002,0.00195 c -0.490813,0.6135159 -0.6875,1.469953 -0.6875,2.53125 0,1.032086 0.20521,1.880431 0.691406,2.503906 v 0.002 h 0.002 c 0.480026,0.609916 1.208764,0.935547 2.02539,0.935547 0.807908,0 1.530221,-0.322117 2.009766,-0.925781 0.494348,-0.620809 0.701172,-1.474202 0.701172,-2.515625 0,-1.062065 -0.200836,-1.9199651 -0.697266,-2.5332031 C 55.97423,8.2898352 55.251456,7.9726562 54.441406,7.9726562 Z m 0,1.0000001 c 0.576614,0 0.936284,0.1687961 1.236328,0.5429687 v 0.00195 c 0.284457,0.351388 0.47461,0.9728009 0.47461,1.9042969 0,0.906203 -0.186696,1.521201 -0.482422,1.892578 h -0.002 c -0.301342,0.379336 -0.656433,0.548828 -1.226563,0.548828 -0.579022,0 -0.93766,-0.171519 -1.238281,-0.552734 -0.294691,-0.377898 -0.480469,-0.991506 -0.480469,-1.888672 0,-0.932264 0.187862,-1.5551399 0.46875,-1.90625 0.298846,-0.3726791 0.662669,-0.5429687 1.25,-0.5429687 z"
         id="path11" />
      <path
         style="stroke:none"
         d="m 57.989534,11.42096 q 0,1.88102 -0.964626,2.96967 -0.964626,1.088649 -2.583819,1.088649 -1.632974,0 -2.5976,-1.088649 -0.957736,-1.08865 -0.957736,-2.96967 0,-1.8810211 0.957736,-2.9696704 0.964626,-1.0955395 2.5976,-1.0955395 1.619193,0 2.583819,1.0955395 0.964626,1.0886493 0.964626,2.9696704 z m -1.336696,0 q 0,-1.4951707 -0.585665,-2.2186402 -0.585666,-0.7303597 -1.626084,-0.7303597 -1.054199,0 -1.639864,0.7303597 -0.578776,0.7234695 -0.578776,2.2186402 0,1.446939 0.585666,2.197969 0.585666,0.74414 1.632974,0.74414 1.033528,0 1.619193,-0.73725 0.592556,-0.74414 0.592556,-2.204859 z"
         id="path12" />
    </g>
    <g
       id="path1049">
      <path
         style="fill:#ffffff;stroke:none"
         d="M 59.507812,4.0449219 V 15.765625 h 2.296875 V 4.0449219 Z m 1,1 h 0.296875 v 9.7207031 h -0.296875 z"
         id="path13" />
      <path
         style="stroke:none"
         d="M 61.303712,15.265683 H 60.008357 V 4.5445543 h 1.295355 z"
         id="path14" />
    </g>
  </g>
</svg>
