<?xml version="1.0" encoding="UTF-8" standalone="no"?>
<svg
   xmlns:dc="http://purl.org/dc/elements/1.1/"
   xmlns:cc="http://creativecommons.org/ns#"
   xmlns:rdf="http://www.w3.org/1999/02/22-rdf-syntax-ns#"
   xmlns:svg="http://www.w3.org/2000/svg"
   xmlns="http://www.w3.org/2000/svg"
   xmlns:sodipodi="http://sodipodi.sourceforge.net/DTD/sodipodi-0.dtd"
   xmlns:inkscape="http://www.inkscape.org/namespaces/inkscape"
   width="6.3424358cm"
   height="2.0180311cm"
   viewBox="0 0 63.424358 20.180311"
   version="1.1"
   id="svg8"
   sodipodi:docname="logo_sans_darkred.svg"
   inkscape:version="1.0.2-2 (e86c870879, 2021-01-15)">
  <sodipodi:namedview
     pagecolor="#ffffff"
     bordercolor="#666666"
     borderopacity="1"
     objecttolerance="10"
     gridtolerance="10"
     guidetolerance="10"
     inkscape:pageopacity="0"
     inkscape:pageshadow="2"
     inkscape:window-width="1920"
     inkscape:window-height="986"
     id="namedview19"
     showgrid="false"
     inkscape:zoom="3.7639347"
     inkscape:cx="126.9584"
     inkscape:cy="23.192219"
     inkscape:window-x="-11"
     inkscape:window-y="-11"
     inkscape:window-maximized="1"
     inkscape:current-layer="svg8"
     inkscape:document-rotation="0" />
  <defs
     id="defs2" />
  <metadata
     id="metadata5">
    <rdf:RDF>
      <cc:Work
         rdf:about="">
        <dc:format>image/svg+xml</dc:format>
        <dc:type
           rdf:resource="http://purl.org/dc/dcmitype/StillImage" />
        <dc:title></dc:title>
      </cc:Work>
    </rdf:RDF>
  </metadata>
  <g
     style="stroke:#f43a3a;stroke-opacity:1"
     id="g826">
    <path
       style="opacity:1;fill:none;stroke:#aa6450;stroke-width:1.08479;stroke-linecap:butt;stroke-linejoin:miter;stroke-miterlimit:4;stroke-dasharray:none;stroke-opacity:1"
       d="m 30.274691,2.3258547 c 5.064996,3.0753388 2.197608,9.9297693 7.898054,17.5289813"
       id="path821" />
    <path
       style="opacity:1;fill:none;stroke:#aa6450;stroke-width:1.08479;stroke-linecap:butt;stroke-linejoin:miter;stroke-miterlimit:4;stroke-dasharray:none;stroke-opacity:1"
       d="M 34.900665,13.238449 C 33.886005,5.3735347 38.335244,5.2492345 35.262334,0.28550077"
       id="path823" />
  </g>
  <path
     style="fill:none;stroke:#9d9d9d;stroke-width:0.47624999;stroke-linecap:butt;stroke-linejoin:miter;stroke-miterlimit:4;stroke-dasharray:none;stroke-opacity:1"
     d="m 39.238858,14.74554 -0.33179,2.253748 c 0,0 -2.379545,-3.403281 -2.145645,-5.722608"
     id="path831" />
  <path
     id="path835"
     d="m 32.337195,14.937508 0.33179,-2.253748 c 0,0 1.253,4.762903 2.961432,6.654916"
     style="fill:none;stroke:#9d9d9d;stroke-width:0.47624999;stroke-linecap:butt;stroke-linejoin:miter;stroke-miterlimit:4;stroke-dasharray:none;stroke-opacity:1" />
  <g
     id="g876"
     transform="rotate(41.339355,206.60773,-74.082664)" />
  <g
     aria-label="Seis  Sol"
     id="text868"
     style="font-style:normal;font-weight:normal;font-size:14.1111px;line-height:1.25;font-family:sans-serif;fill:#473805;fill-opacity:1;stroke:none;stroke-width:0.264583">
    <path
       d="m 10.144083,12.337354 q 0,0.599446 -0.2824975,1.185112 -0.2756074,0.585666 -0.7785909,0.992187 -0.5512149,0.440972 -1.2884647,0.689019 -0.7303597,0.248046 -1.7638876,0.248046 -1.1093199,0 -1.9981538,-0.206705 Q 3.1505447,15.038307 2.23415,14.631786 V 12.92302 h 0.096463 q 0.778591,0.647678 1.7983385,0.999077 1.0197475,0.351399 1.9154716,0.351399 1.2677942,0 1.9705931,-0.475422 0.7096891,-0.475423 0.7096891,-1.267795 0,-0.682128 -0.3376191,-1.005967 Q 8.0563569,11.200474 7.3742285,11.021329 6.8574646,10.883525 6.2511283,10.793953 5.6516821,10.70438 4.9764439,10.566577 3.6121872,10.277189 2.9507293,9.58128 2.2961617,8.8784811 2.2961617,7.7553808 q 0,-1.2884647 1.0886493,-2.1083968 1.0886494,-0.8268223 2.7629645,-0.8268223 1.0817591,0 1.9843735,0.2067056 0.9026143,0.2067056 1.598523,0.5098737 V 7.1490445 H 9.6342094 Q 9.0485436,6.6529511 8.0908078,6.3291124 7.1399622,5.9983835 6.1408853,5.9983835 q -1.0955395,0 -1.7638875,0.4547522 Q 3.71554,6.907888 3.71554,7.6244673 q 0,0.6407873 0.3307289,1.0059671 0.3307289,0.3651798 1.1644413,0.558105 0.4409719,0.096463 1.2540138,0.2342663 0.8130419,0.1378038 1.3780372,0.2824977 1.1437708,0.3031686 1.7225464,0.9163946 0.5787754,0.613227 0.5787754,1.715656 z"
       style="font-size:14.1111px;fill:#473805;fill-opacity:1;stroke-width:0.264583"
       id="path1037" />
    <path
       d="m 18.674133,11.551873 h -5.670622 q 0,0.709689 0.213595,1.240234 0.213596,0.523654 0.585666,0.861273 0.35829,0.330729 0.847493,0.496093 0.496093,0.165365 1.088649,0.165365 0.785481,0 1.577853,-0.310059 0.799261,-0.316948 1.13688,-0.620117 h 0.0689 v 1.412489 q -0.654567,0.275607 -1.336696,0.461642 -0.682128,0.186035 -1.433158,0.186035 -1.915472,0 -2.990341,-1.033528 -1.074869,-1.040418 -1.074869,-2.948999 0,-1.8879112 1.026638,-2.9972311 1.033528,-1.1093198 2.714733,-1.1093198 1.557182,0 2.397785,0.9095045 0.847492,0.9095045 0.847492,2.5838194 z m -1.260904,-0.992187 q -0.0069,-1.0197471 -0.516764,-1.5778521 -0.502983,-0.5581051 -1.536511,-0.5581051 -1.040418,0 -1.660535,0.6132266 -0.613226,0.6132265 -0.695908,1.5227306 z"
       style="font-size:14.1111px;fill:#473805;fill-opacity:1;stroke-width:0.264583"
       id="path1039" />
    <path
       d="M 22.029655,6.2808811 H 20.568936 V 4.9372949 h 1.460719 z m -0.08268,8.9848019 H 20.651618 V 7.5693458 h 1.295355 z"
       style="font-size:14.1111px;fill:#473805;fill-opacity:1;stroke-width:0.264583"
       id="path1041" />
    <path
       d="m 30.00849,13.047043 q 0,1.054199 -0.875054,1.729437 -0.868163,0.675238 -2.377114,0.675238 -0.854383,0 -1.570962,-0.199815 -0.709689,-0.206706 -1.192002,-0.447862 v -1.453829 h 0.0689 q 0.613227,0.461642 1.364257,0.737249 0.75103,0.268718 1.440049,0.268718 0.854383,0 1.336696,-0.275608 0.482313,-0.275607 0.482313,-0.868163 0,-0.454752 -0.261827,-0.689019 -0.261827,-0.234266 -1.005967,-0.39963 -0.275608,-0.06201 -0.72347,-0.144694 -0.440972,-0.08268 -0.806151,-0.179145 -1.012858,-0.268717 -1.440049,-0.785481 -0.420301,-0.523654 -0.420301,-1.2815749 0,-0.4754228 0.192925,-0.8957241 0.199815,-0.4203014 0.599446,-0.7510303 0.38585,-0.3238387 0.978406,-0.5098737 0.599446,-0.1929252 1.336696,-0.1929252 0.689019,0 1.391818,0.1722546 0.709689,0.1653645 1.178221,0.406521 v 1.3849273 h -0.0689 Q 29.140326,8.9818339 28.430637,8.7337872 27.720948,8.4788503 27.03882,8.4788503 q -0.709689,0 -1.198893,0.2756074 -0.489203,0.2687173 -0.489203,0.8061518 0,0.4754225 0.296278,0.7165795 0.289388,0.241156 0.937065,0.39274 0.35829,0.08268 0.799262,0.165365 0.447862,0.08268 0.74414,0.151584 0.902614,0.206705 1.391817,0.709689 0.489204,0.509874 0.489204,1.350476 z"
       style="font-size:14.1111px;fill:#473805;fill-opacity:1;stroke-width:0.264583"
       id="path1043" />
    <path
       d="m 49.342348,12.337354 q 0,0.599446 -0.282497,1.185112 -0.275608,0.585666 -0.778591,0.992187 -0.551215,0.440972 -1.288465,0.689019 -0.73036,0.248046 -1.763888,0.248046 -1.109319,0 -1.998153,-0.206705 -0.881944,-0.206706 -1.798339,-0.613227 V 12.92302 h 0.09646 q 0.778591,0.647678 1.798338,0.999077 1.019748,0.351399 1.915472,0.351399 1.267794,0 1.970593,-0.475422 0.709689,-0.475423 0.709689,-1.267795 0,-0.682128 -0.337619,-1.005967 Q 47.254622,11.200474 46.572494,11.021329 46.05573,10.883525 45.449393,10.793953 44.849947,10.70438 44.174709,10.566577 42.810452,10.277189 42.148994,9.58128 41.494427,8.8784811 41.494427,7.7553808 q 0,-1.2884647 1.088649,-2.1083968 1.088649,-0.8268223 2.762965,-0.8268223 1.081759,0 1.984373,0.2067056 0.902614,0.2067056 1.598523,0.5098737 v 1.6123035 h -0.09646 Q 48.246809,6.6529511 47.289073,6.3291124 46.338227,5.9983835 45.33915,5.9983835 q -1.095539,0 -1.763887,0.4547522 -0.661458,0.4547523 -0.661458,1.1713316 0,0.6407873 0.330729,1.0059671 0.330729,0.3651798 1.164441,0.558105 0.440972,0.096463 1.254014,0.2342663 0.813042,0.1378038 1.378037,0.2824977 1.143771,0.3031686 1.722547,0.9163946 0.578775,0.613227 0.578775,1.715656 z"
       style="font-size:14.1111px;fill:#473805;fill-opacity:1;stroke-width:0.264583"
       id="path1045" />
    <path
       d="m 57.989534,11.42096 q 0,1.88102 -0.964626,2.96967 -0.964626,1.088649 -2.583819,1.088649 -1.632974,0 -2.5976,-1.088649 -0.957736,-1.08865 -0.957736,-2.96967 0,-1.8810211 0.957736,-2.9696704 0.964626,-1.0955395 2.5976,-1.0955395 1.619193,0 2.583819,1.0955395 0.964626,1.0886493 0.964626,2.9696704 z m -1.336696,0 q 0,-1.4951707 -0.585665,-2.2186402 -0.585666,-0.7303597 -1.626084,-0.7303597 -1.054199,0 -1.639864,0.7303597 -0.578776,0.7234695 -0.578776,2.2186402 0,1.446939 0.585666,2.197969 0.585666,0.74414 1.632974,0.74414 1.033528,0 1.619193,-0.73725 0.592556,-0.74414 0.592556,-2.204859 z"
       style="font-size:14.1111px;fill:#473805;fill-opacity:1;stroke-width:0.264583"
       id="path1047" />
    <path
       d="M 61.303712,15.265683 H 60.008357 V 4.5445543 h 1.295355 z"
       style="font-size:14.1111px;fill:#473805;fill-opacity:1;stroke-width:0.264583"
       id="path1049" />
  </g>
</svg>
